<?xml version="1.0" standalone="no"?><!DOCTYPE svg PUBLIC "-//W3C//DTD SVG 1.1//EN" "http://www.w3.org/Graphics/SVG/1.1/DTD/svg11.dtd"><svg t="1699973324722" class="icon" viewBox="0 0 1024 1024" version="1.1" xmlns="http://www.w3.org/2000/svg" p-id="4475" width="32" height="32" xmlns:xlink="http://www.w3.org/1999/xlink"><path d="M219.428571 310.857143l0 329.142857q0 7.428571-5.428571 12.857143t-12.857143 5.428571q-8 0-13.142857-5.142857l-164.571429-164.571429q-5.142857-5.142857-5.142857-13.142857t5.142857-13.142857l164.571429-164.571429q5.142857-5.142857 13.142857-5.142857 7.428571 0 12.857143 5.428571t5.428571 12.857143zm804.571429 438.857143l0 109.714286q0 7.428571-5.428571 12.857143t-12.857143 5.428571l-987.428571 0q-7.428571 0-12.857143-5.428571t-5.428571-12.857143l0-109.714286q0-7.428571 5.428571-12.857143t12.857143-5.428571l987.428571 0q7.428571 0 12.857143 5.428571t5.428571 12.857143zm0-219.428571l0 109.714286q0 7.428571-5.428571 12.857143t-12.857143 5.428571l-621.714286 0q-7.428571 0-12.857143-5.428571t-5.428571-12.857143l0-109.714286q0-7.428571 5.428571-12.857143t12.857143-5.428571l621.714286 0q7.428571 0 12.857143 5.428571t5.428571 12.857143zm0-219.428571l0 109.714286q0 7.428571-5.428571 12.857143t-12.857143 5.428571l-621.714286 0q-7.428571 0-12.857143-5.428571t-5.428571-12.857143l0-109.714286q0-7.428571 5.428571-12.857143t12.857143-5.428571l621.714286 0q7.428571 0 12.857143 5.428571t5.428571 12.857143zm0-219.428571l0 109.714286q0 7.428571-5.428571 12.857143t-12.857143 5.428571l-987.428571 0q-7.428571 0-12.857143-5.428571t-5.428571-12.857143l0-109.714286q0-7.428571 5.428571-12.857143t12.857143-5.428571l987.428571 0q7.428571 0 12.857143 5.428571t5.428571 12.857143z" p-id="4476"></path></svg>
