<?xml version="1.0" encoding="UTF-8"?>
<svg width="1024" height="1024" viewBox="0 0 1024 1024" xmlns="http://www.w3.org/2000/svg">
    <g id="SWTM-logo-on-dark">
        <g id="SWIn-Product">
            <path id="Path2938" fill="#85ea2d" stroke="none" d="M 512 999.590759 C 242.712372 999.585144 24.415686 781.280762 24.419453 511.993225 C 24.42322 242.705566 242.726013 24.407349 512.013672 24.409241 C 781.301208 24.411133 999.601013 242.712341 999.601013 512 C 999.601013 641.318848 948.228577 765.341064 856.785278 856.782349 C 765.342102 948.223633 641.318848 999.593506 512 999.590759 Z"/>
            <path id="Path2939" fill="#85ea2d" stroke="none" d="M 512 48.808167 C 767.813721 48.808167 975.191772 256.186218 975.191772 512 C 975.191772 767.813721 767.813721 975.191833 512 975.191833 C 256.186218 975.191833 48.808205 767.813721 48.808205 512 C 48.808205 256.186218 256.186218 48.808167 512 48.808167 M 512 0 C 229.230194 0 -0 229.230225 -0 512 C -0 794.769775 229.230194 1024 512 1024 C 794.769714 1024 1024 794.769775 1024 512 C 1024 229.230225 794.769714 0 512 0 Z"/>
            <path id="Path2940" fill="#173647" stroke="none" d="M 322.375671 346.477905 C 320.799561 363.999268 322.969269 382.114258 321.792297 399.8302 C 320.503754 417.547729 318.135162 435.170166 314.699799 452.599121 C 308.95401 477.162964 293.914246 498.545166 272.738495 512.255859 C 314.484894 539.418152 319.202972 581.553467 321.966278 624.28241 C 323.347961 647.309937 322.754333 670.542236 325.11853 693.385559 C 326.889069 711.10144 333.776917 715.635376 352.096588 716.21875 C 359.567749 716.42334 367.243591 716.21875 375.912201 716.21875 L 375.912201 770.962891 C 321.77182 780.17395 277.077881 764.822266 266.055359 718.981934 C 262.427521 702.136475 260.188873 685.021484 259.362 667.80957 C 258.164581 649.500122 260.139832 631.190674 258.768402 612.881226 C 254.817902 562.670898 248.329254 545.743042 200.298874 543.378906 L 200.298874 480.948547 C 203.769577 480.159851 207.282227 479.568665 210.819901 479.17804 C 237.194138 477.796387 248.421356 469.721375 254.121979 443.736023 C 256.859863 429.110291 258.505341 414.301025 259.044739 399.43103 C 259.617493 370.667786 261.667084 341.953003 265.185425 313.400085 C 272.073242 272.646362 297.280731 252.955261 339.221619 250.591064 C 351.032196 250.007751 363.037231 250.591064 376.628662 250.591064 L 376.628662 306.512207 C 370.917786 306.901123 365.995026 307.689148 360.877777 307.689148 C 326.735565 306.512207 324.954742 318.128357 322.375671 346.477905 Z M 387.937744 476.025818 L 387.149689 476.025818 C 374.221252 475.237244 361.866943 481.459534 354.804108 492.316956 C 347.741272 503.174377 347.060425 516.990356 353.021515 528.489624 C 358.982605 539.98877 370.665192 547.395691 383.608551 547.88208 L 385.972717 547.88208 C 405.486023 549.011719 422.22641 534.121704 423.3797 514.609741 L 423.3797 512.644775 C 423.693237 492.758118 407.844299 476.373352 387.958191 476.025818 Z M 511.385956 476.025818 C 492.367004 475.398743 476.42746 490.280884 475.749512 509.298096 C 475.715302 510.417603 475.783813 511.537842 475.954193 512.644775 C 475.496826 522.369019 479.257751 531.81781 486.272522 538.567871 C 493.287292 545.317993 502.873596 548.712891 512.57312 547.88208 C 522.294373 548.460754 531.783936 544.767151 538.55603 537.76886 C 545.328186 530.770569 548.708069 521.164795 547.810425 511.467773 C 548.294495 501.757019 544.5802 492.306702 537.613647 485.524292 C 530.647095 478.74176 521.100769 475.281921 511.406403 476.025818 Z M 637.791931 476.025818 C 617.670654 475.663513 600.997986 491.547058 600.384949 511.662292 C 600.357666 521.271362 604.160706 530.495178 610.952515 537.292725 C 617.744324 544.090332 626.964905 547.901123 636.574036 547.88208 L 636.973206 547.88208 C 655.077881 551.044495 673.397583 533.553833 674.574524 512.450317 C 674.542236 502.727051 670.636597 493.41748 663.721924 486.581482 C 656.80719 479.745544 647.453552 475.946838 637.73053 476.025818 Z M 811.245728 478.973389 C 788.402405 477.94989 776.980713 470.314941 771.331299 448.658813 C 767.790405 434.794434 765.61377 420.617065 764.832397 406.329041 C 763.256287 379.94458 763.450806 353.365662 761.680176 326.98114 C 757.586365 264.376892 712.268188 242.526306 646.501465 253.344116 L 646.501465 307.689148 C 656.930359 307.689148 665.005371 307.689148 673.111023 307.883667 C 687.091309 308.078064 697.673767 313.400085 699.096375 328.956421 C 700.478088 343.131165 700.478088 357.500366 701.85968 371.869568 C 704.612793 400.423767 706.17865 429.366882 711.070679 457.521851 C 716.712036 480.341675 731.133667 500.012024 751.200073 512.255859 C 716.402893 535.682556 706.106995 569.149292 704.34668 606.760986 C 703.323242 632.55188 702.770569 658.537231 701.388916 684.542969 C 700.211975 708.164185 691.942505 715.839966 668.116638 716.433594 C 661.423279 716.628052 654.924438 717.22168 647.453247 717.610535 L 647.453247 773.337219 C 661.423279 773.337219 674.226624 774.125305 687.019714 773.337219 C 726.790894 770.973145 750.811218 751.670898 758.661011 713.086914 C 761.982483 691.827148 763.934509 670.375793 764.504883 648.865601 C 765.886597 629.184692 765.692078 609.299133 767.657104 589.80249 C 770.614868 559.283264 784.595154 546.684631 815.104126 544.770752 C 817.990173 544.415771 820.830566 543.757141 823.578308 542.805786 L 823.578308 480.375427 C 818.46106 479.78186 814.950623 479.198486 811.215088 478.993835 Z"/>
        </g>
    </g>
</svg>
